<svg width="290" height="99" viewBox="0 0 290 99" fill="none" xmlns="http://www.w3.org/2000/svg">
<path d="M33.98 11.07C33.52 11.07 33.1067 10.99 32.74 10.83C32.38 10.6633 32.0967 10.4367 31.89 10.15C31.6833 9.85667 31.5767 9.52 31.57 9.14H32.54C32.5733 9.46667 32.7067 9.74333 32.94 9.97C33.18 10.19 33.5267 10.3 33.98 10.3C34.4133 10.3 34.7533 10.1933 35 9.98C35.2533 9.76 35.38 9.48 35.38 9.14C35.38 8.87333 35.3067 8.65667 35.16 8.49C35.0133 8.32333 34.83 8.19667 34.61 8.11C34.39 8.02333 34.0933 7.93 33.72 7.83C33.26 7.71 32.89 7.59 32.61 7.47C32.3367 7.35 32.1 7.16333 31.9 6.91C31.7067 6.65 31.61 6.30333 31.61 5.87C31.61 5.49 31.7067 5.15333 31.9 4.86C32.0933 4.56667 32.3633 4.34 32.71 4.18C33.0633 4.02 33.4667 3.94 33.92 3.94C34.5733 3.94 35.1067 4.10333 35.52 4.43C35.94 4.75667 36.1767 5.19 36.23 5.73H35.23C35.1967 5.46333 35.0567 5.23 34.81 5.03C34.5633 4.82333 34.2367 4.72 33.83 4.72C33.45 4.72 33.14 4.82 32.9 5.02C32.66 5.21333 32.54 5.48667 32.54 5.84C32.54 6.09333 32.61 6.3 32.75 6.46C32.8967 6.62 33.0733 6.74333 33.28 6.83C33.4933 6.91 33.79 7.00333 34.17 7.11C34.63 7.23667 35 7.36333 35.28 7.49C35.56 7.61 35.8 7.8 36 8.06C36.2 8.31333 36.3 8.66 36.3 9.1C36.3 9.44 36.21 9.76 36.03 10.06C35.85 10.36 35.5833 10.6033 35.23 10.79C34.8767 10.9767 34.46 11.07 33.98 11.07ZM42.4991 5.52V11H41.5891V10.19C41.4158 10.47 41.1725 10.69 40.8591 10.85C40.5525 11.0033 40.2125 11.08 39.8391 11.08C39.4125 11.08 39.0291 10.9933 38.6891 10.82C38.3491 10.64 38.0791 10.3733 37.8791 10.02C37.6858 9.66667 37.5891 9.23667 37.5891 8.73V5.52H38.4891V8.61C38.4891 9.15 38.6258 9.56667 38.8991 9.86C39.1725 10.1467 39.5458 10.29 40.0191 10.29C40.5058 10.29 40.8891 10.14 41.1691 9.84C41.4491 9.54 41.5891 9.10333 41.5891 8.53V5.52H42.4991ZM46.7056 5.42C47.3723 5.42 47.9123 5.62333 48.3256 6.03C48.739 6.43 48.9456 7.01 48.9456 7.77V11H48.0456V7.9C48.0456 7.35333 47.909 6.93667 47.6356 6.65C47.3623 6.35667 46.989 6.21 46.5156 6.21C46.0356 6.21 45.6523 6.36 45.3656 6.66C45.0856 6.96 44.9456 7.39667 44.9456 7.97V11H44.0356V5.52H44.9456V6.3C45.1256 6.02 45.369 5.80333 45.6756 5.65C45.989 5.49667 46.3323 5.42 46.7056 5.42ZM51.3421 6.41C51.5021 6.09667 51.7288 5.85333 52.0221 5.68C52.3221 5.50667 52.6854 5.42 53.1121 5.42V6.36H52.8721C51.8521 6.36 51.3421 6.91333 51.3421 8.02V11H50.4321V5.52H51.3421V6.41ZM54.6326 4.63C54.4592 4.63 54.3126 4.57 54.1926 4.45C54.0726 4.33 54.0126 4.18333 54.0126 4.01C54.0126 3.83667 54.0726 3.69 54.1926 3.57C54.3126 3.45 54.4592 3.39 54.6326 3.39C54.7992 3.39 54.9392 3.45 55.0526 3.57C55.1726 3.69 55.2326 3.83667 55.2326 4.01C55.2326 4.18333 55.1726 4.33 55.0526 4.45C54.9392 4.57 54.7992 4.63 54.6326 4.63ZM55.0726 5.52V11H54.1626V5.52H55.0726ZM58.5635 11.09C58.1435 11.09 57.7668 11.02 57.4335 10.88C57.1002 10.7333 56.8368 10.5333 56.6435 10.28C56.4502 10.02 56.3435 9.72333 56.3235 9.39H57.2635C57.2902 9.66333 57.4168 9.88667 57.6435 10.06C57.8768 10.2333 58.1802 10.32 58.5535 10.32C58.9002 10.32 59.1735 10.2433 59.3735 10.09C59.5735 9.93667 59.6735 9.74333 59.6735 9.51C59.6735 9.27 59.5668 9.09333 59.3535 8.98C59.1402 8.86 58.8102 8.74333 58.3635 8.63C57.9568 8.52333 57.6235 8.41667 57.3635 8.31C57.1102 8.19667 56.8902 8.03333 56.7035 7.82C56.5235 7.6 56.4335 7.31333 56.4335 6.96C56.4335 6.68 56.5168 6.42333 56.6835 6.19C56.8502 5.95667 57.0868 5.77333 57.3935 5.64C57.7002 5.5 58.0502 5.43 58.4435 5.43C59.0502 5.43 59.5402 5.58333 59.9135 5.89C60.2868 6.19667 60.4868 6.61667 60.5135 7.15H59.6035C59.5835 6.86333 59.4668 6.63333 59.2535 6.46C59.0468 6.28667 58.7668 6.2 58.4135 6.2C58.0868 6.2 57.8268 6.27 57.6335 6.41C57.4402 6.55 57.3435 6.73333 57.3435 6.96C57.3435 7.14 57.4002 7.29 57.5135 7.41C57.6335 7.52333 57.7802 7.61667 57.9535 7.69C58.1335 7.75667 58.3802 7.83333 58.6935 7.92C59.0868 8.02667 59.4068 8.13333 59.6535 8.24C59.9002 8.34 60.1102 8.49333 60.2835 8.7C60.4635 8.90667 60.5568 9.17667 60.5635 9.51C60.5635 9.81 60.4802 10.08 60.3135 10.32C60.1468 10.56 59.9102 10.75 59.6035 10.89C59.3035 11.0233 58.9568 11.09 58.5635 11.09ZM66.8481 8.05C66.8481 8.22333 66.8381 8.40667 66.8181 8.6H62.4381C62.4715 9.14 62.6548 9.56333 62.9881 9.87C63.3281 10.17 63.7381 10.32 64.2181 10.32C64.6115 10.32 64.9381 10.23 65.1981 10.05C65.4648 9.86333 65.6515 9.61667 65.7581 9.31H66.7381C66.5915 9.83667 66.2981 10.2667 65.8581 10.6C65.4181 10.9267 64.8715 11.09 64.2181 11.09C63.6981 11.09 63.2315 10.9733 62.8181 10.74C62.4115 10.5067 62.0915 10.1767 61.8581 9.75C61.6248 9.31667 61.5081 8.81667 61.5081 8.25C61.5081 7.68333 61.6215 7.18667 61.8481 6.76C62.0748 6.33333 62.3915 6.00667 62.7981 5.78C63.2115 5.54667 63.6848 5.43 64.2181 5.43C64.7381 5.43 65.1981 5.54333 65.5981 5.77C65.9981 5.99667 66.3048 6.31 66.5181 6.71C66.7381 7.10333 66.8481 7.55 66.8481 8.05ZM65.9081 7.86C65.9081 7.51333 65.8315 7.21667 65.6781 6.97C65.5248 6.71667 65.3148 6.52667 65.0481 6.4C64.7881 6.26667 64.4981 6.2 64.1781 6.2C63.7181 6.2 63.3248 6.34667 62.9981 6.64C62.6781 6.93333 62.4948 7.34 62.4481 7.86H65.9081Z" fill="#C4C4C4"/>
<path d="M23.8612 25.572C23.8612 24.196 24.0852 23.124 24.5332 22.356C24.9812 21.58 25.7652 21.192 26.8852 21.192C27.9972 21.192 28.7772 21.58 29.2252 22.356C29.6732 23.124 29.8972 24.196 29.8972 25.572C29.8972 26.972 29.6732 28.06 29.2252 28.836C28.7772 29.612 27.9972 30 26.8852 30C25.7652 30 24.9812 29.612 24.5332 28.836C24.0852 28.06 23.8612 26.972 23.8612 25.572ZM28.8172 25.572C28.8172 24.876 28.7692 24.288 28.6732 23.808C28.5852 23.32 28.3972 22.928 28.1092 22.632C27.8292 22.336 27.4212 22.188 26.8852 22.188C26.3412 22.188 25.9252 22.336 25.6372 22.632C25.3572 22.928 25.1692 23.32 25.0732 23.808C24.9852 24.288 24.9412 24.876 24.9412 25.572C24.9412 26.292 24.9852 26.896 25.0732 27.384C25.1692 27.872 25.3572 28.264 25.6372 28.56C25.9252 28.856 26.3412 29.004 26.8852 29.004C27.4212 29.004 27.8292 28.856 28.1092 28.56C28.3972 28.264 28.5852 27.872 28.6732 27.384C28.7692 26.896 28.8172 26.292 28.8172 25.572ZM36.2323 23.388C36.0563 22.5 35.5083 22.056 34.5883 22.056C33.8763 22.056 33.3443 22.332 32.9923 22.884C32.6403 23.428 32.4683 24.328 32.4763 25.584C32.6603 25.168 32.9643 24.844 33.3883 24.612C33.8203 24.372 34.3003 24.252 34.8283 24.252C35.6523 24.252 36.3083 24.508 36.7963 25.02C37.2923 25.532 37.5403 26.24 37.5403 27.144C37.5403 27.688 37.4323 28.176 37.2163 28.608C37.0083 29.04 36.6883 29.384 36.2563 29.64C35.8323 29.896 35.3163 30.024 34.7083 30.024C33.8843 30.024 33.2403 29.84 32.7763 29.472C32.3123 29.104 31.9883 28.596 31.8043 27.948C31.6203 27.3 31.5283 26.5 31.5283 25.548C31.5283 22.612 32.5523 21.144 34.6003 21.144C35.3843 21.144 36.0003 21.356 36.4483 21.78C36.8963 22.204 37.1603 22.74 37.2403 23.388H36.2323ZM34.6003 25.176C34.2563 25.176 33.9323 25.248 33.6283 25.392C33.3243 25.528 33.0763 25.74 32.8843 26.028C32.7003 26.308 32.6083 26.652 32.6083 27.06C32.6083 27.668 32.7843 28.164 33.1363 28.548C33.4883 28.924 33.9923 29.112 34.6483 29.112C35.2083 29.112 35.6523 28.94 35.9803 28.596C36.3163 28.244 36.4843 27.772 36.4843 27.18C36.4843 26.556 36.3243 26.068 36.0043 25.716C35.6843 25.356 35.2163 25.176 34.6003 25.176ZM39.5415 30.072C39.3335 30.072 39.1575 30 39.0135 29.856C38.8695 29.712 38.7975 29.536 38.7975 29.328C38.7975 29.12 38.8695 28.944 39.0135 28.8C39.1575 28.656 39.3335 28.584 39.5415 28.584C39.7415 28.584 39.9095 28.656 40.0455 28.8C40.1895 28.944 40.2615 29.12 40.2615 29.328C40.2615 29.536 40.1895 29.712 40.0455 29.856C39.9095 30 39.7415 30.072 39.5415 30.072ZM39.5415 24.936C39.3335 24.936 39.1575 24.864 39.0135 24.72C38.8695 24.576 38.7975 24.4 38.7975 24.192C38.7975 23.984 38.8695 23.808 39.0135 23.664C39.1575 23.52 39.3335 23.448 39.5415 23.448C39.7415 23.448 39.9095 23.52 40.0455 23.664C40.1895 23.808 40.2615 23.984 40.2615 24.192C40.2615 24.4 40.1895 24.576 40.0455 24.72C39.9095 24.864 39.7415 24.936 39.5415 24.936ZM41.4362 29.124C42.4522 28.308 43.2482 27.64 43.8242 27.12C44.4002 26.592 44.8842 26.044 45.2762 25.476C45.6762 24.9 45.8762 24.336 45.8762 23.784C45.8762 23.264 45.7482 22.856 45.4922 22.56C45.2442 22.256 44.8402 22.104 44.2802 22.104C43.7362 22.104 43.3122 22.276 43.0082 22.62C42.7122 22.956 42.5522 23.408 42.5282 23.976H41.4722C41.5042 23.08 41.7762 22.388 42.2882 21.9C42.8002 21.412 43.4602 21.168 44.2682 21.168C45.0922 21.168 45.7442 21.396 46.2242 21.852C46.7122 22.308 46.9562 22.936 46.9562 23.736C46.9562 24.4 46.7562 25.048 46.3562 25.68C45.9642 26.304 45.5162 26.856 45.0122 27.336C44.5082 27.808 43.8642 28.36 43.0802 28.992H47.2082V29.904H41.4362V29.124ZM54.0026 22.272H49.7906V25.008C49.9746 24.752 50.2466 24.544 50.6066 24.384C50.9666 24.216 51.3546 24.132 51.7706 24.132C52.4346 24.132 52.9746 24.272 53.3906 24.552C53.8066 24.824 54.1026 25.18 54.2786 25.62C54.4626 26.052 54.5546 26.512 54.5546 27C54.5546 27.576 54.4466 28.092 54.2306 28.548C54.0146 29.004 53.6826 29.364 53.2346 29.628C52.7946 29.892 52.2466 30.024 51.5906 30.024C50.7506 30.024 50.0706 29.808 49.5506 29.376C49.0306 28.944 48.7146 28.368 48.6026 27.648H49.6706C49.7746 28.104 49.9946 28.46 50.3306 28.716C50.6666 28.972 51.0906 29.1 51.6026 29.1C52.2346 29.1 52.7106 28.912 53.0306 28.536C53.3506 28.152 53.5106 27.648 53.5106 27.024C53.5106 26.4 53.3506 25.92 53.0306 25.584C52.7106 25.24 52.2386 25.068 51.6146 25.068C51.1906 25.068 50.8186 25.172 50.4986 25.38C50.1866 25.58 49.9586 25.856 49.8146 26.208H48.7826V21.312H54.0026V22.272ZM64.3289 28.14H60.6809L60.0089 30H58.8569L61.8809 21.684H63.1409L66.1529 30H65.0009L64.3289 28.14ZM64.0169 27.252L62.5049 23.028L60.9929 27.252H64.0169ZM75.9549 21.696V30H74.8629V23.808L72.1029 30H71.3349L68.5629 23.796V30H67.4709V21.696H68.6469L71.7189 28.56L74.7909 21.696H75.9549Z" fill="#9A9A9A"/>
<path d="M0.312102 76.46L0 76L49 76.0366L48.6879 76.4966L48.3758 76.9564L48.0637 77.4158L47.7516 77.8746L47.4395 78.3327L47.1274 78.7899L46.8153 79.2459L46.5032 79.7006L46.1911 80.1539L45.879 80.6055L45.5669 81.0552L45.2548 81.503L44.9427 81.9485L44.6306 82.3916L44.3185 82.8322L44.0064 83.2701L43.6943 83.7051L43.3822 84.1369L43.0701 84.5655L42.758 84.9907L42.4459 85.4123L42.1338 85.8302L41.8217 86.244L41.5096 86.6538L41.1975 87.0594L40.8853 87.4605L40.5732 87.857L40.2611 88.2488L39.949 88.6357L39.6369 89.0175L39.3248 89.3942L39.0127 89.7654L38.7006 90.1312L38.3885 90.4913L38.0764 90.8456L37.7643 91.194L37.4522 91.5363L37.1401 91.8724L36.828 92.2021L36.5159 92.5254L36.2038 92.842L35.8917 93.1519L35.5796 93.455L35.2675 93.7511L34.9554 94.04L34.6433 94.3218L34.3312 94.5962L34.0191 94.8632L33.707 95.1226L33.3949 95.3744L33.0828 95.6185L32.7707 95.8547L32.4586 96.0829L32.1465 96.3031L31.8344 96.5152L31.5223 96.7191L31.2102 96.9147L30.8981 97.102L30.586 97.2808L30.2739 97.4511L29.9618 97.6128L29.6497 97.7658L29.3376 97.9102L29.0255 98.0458L28.7134 98.1725L28.4013 98.2905L28.0892 98.3994L27.7771 98.4995L27.465 98.5905L27.1529 98.6725L26.8408 98.7454L26.5287 98.8093L26.2166 98.864L25.9045 98.9095L25.5924 98.9459L25.2803 98.9731L24.9682 98.9912L24.6561 99L24.3439 98.9996L24.0318 98.9901L23.7197 98.9713L23.4076 98.9434L23.0955 98.9062L22.7834 98.8599L22.4713 98.8045L22.1592 98.74L21.8471 98.6663L21.535 98.5836L21.2229 98.4918L20.9108 98.3911L20.5987 98.2814L20.2866 98.1628L19.9745 98.0353L19.6624 97.899L19.3503 97.754L19.0382 97.6002L18.7261 97.4378L18.414 97.2668L18.1019 97.0874L17.7898 96.8995L17.4777 96.7032L17.1656 96.4986L16.8535 96.2859L16.5414 96.065L16.2293 95.8361L15.9172 95.5993L15.6051 95.3547L15.293 95.1022L14.9809 94.8422L14.6688 94.5746L14.3567 94.2996L14.0446 94.0173L13.7325 93.7277L13.4204 93.4311L13.1083 93.1275L12.7962 92.8171L12.4841 92.4999L12.172 92.1761L11.8599 91.8459L11.5478 91.5093L11.2357 91.1665L10.9236 90.8176L10.6115 90.4629L10.2994 90.1023L9.98726 89.7361L9.67516 89.3644L9.36306 88.9873L9.05096 88.6051L8.73885 88.2178L8.42675 87.8256L8.11465 87.4287L7.80255 87.0273L7.49045 86.6214L7.17834 86.2112L6.86624 85.797L6.55414 85.3789L6.24204 84.957L5.92994 84.5315L5.61783 84.1026L5.30573 83.6705L4.99363 83.2353L4.68153 82.7973L4.36943 82.3564L4.05732 81.9131L3.74522 81.4674L3.43312 81.0195L3.12102 80.5696L2.80892 80.1179L2.49682 79.6645L2.18471 79.2096L1.87261 78.7535L1.56051 78.2963L1.24841 77.8381L0.936306 77.3792L0.624204 76.9198L0.312102 76.46Z" fill="#001F70"/>
<path d="M49.5987 75.5L49 76L237 75.9204L236.401 75.4204L235.803 74.9205L235.204 74.4206L234.605 73.921L234.006 73.4215L233.408 72.9223L232.809 72.4234L232.21 71.9249L231.611 71.4268L231.013 70.9291L230.414 70.4319L229.815 69.9353L229.217 69.4393L228.618 68.944L228.019 68.4494L227.42 67.9555L226.822 67.4624L226.223 66.9702L225.624 66.4789L225.025 65.9885L224.427 65.4991L223.828 65.0108L223.229 64.5236L222.631 64.0375L222.032 63.5527L221.433 63.069L220.834 62.5867L220.236 62.1057L219.637 61.6261L219.038 61.1479L218.439 60.6712L217.841 60.1961L217.242 59.7225L216.643 59.2506L216.045 58.7803L215.446 58.3118L214.847 57.845L214.248 57.38L213.65 56.9169L213.051 56.4558L212.452 55.9965L211.854 55.5393L211.255 55.0841L210.656 54.631L210.057 54.18L209.459 53.7313L208.86 53.2847L208.261 52.8404L207.662 52.3985L207.064 51.9589L206.465 51.5217L205.866 51.0869L205.268 50.6546L204.669 50.2249L204.07 49.7978L203.471 49.3732L202.873 48.9514L202.274 48.5322L201.675 48.1158L201.076 47.7022L200.478 47.2914L199.879 46.8835L199.28 46.4784L198.682 46.0764L198.083 45.6773L197.484 45.2813L196.885 44.8883L196.287 44.4985L195.688 44.1118L195.089 43.7282L194.49 43.348L193.892 42.9709L193.293 42.5972L192.694 42.2268L192.096 41.8598L191.497 41.4962L190.898 41.1361L190.299 40.7795L189.701 40.4263L189.102 40.0767L188.503 39.7308L187.904 39.3884L187.306 39.0497L186.707 38.7147L186.108 38.3835L185.51 38.056L184.911 37.7322L184.312 37.4124L183.713 37.0963L183.115 36.7842L182.516 36.476L181.917 36.1717L181.318 35.8714L180.72 35.5752L180.121 35.2829L179.522 34.9948L178.924 34.7107L178.325 34.4308L177.726 34.155L177.127 33.8835L176.529 33.6161L175.93 33.353L175.331 33.0941L174.732 32.8395L174.134 32.5893L173.535 32.3433L172.936 32.1018L172.338 31.8646L171.739 31.6319L171.14 31.4036L170.541 31.1797L169.943 30.9603L169.344 30.7455L168.745 30.5351L168.146 30.3293L167.548 30.1281L166.949 29.9314L166.35 29.7394L165.752 29.552L165.153 29.3692L164.554 29.1911L163.955 29.0177L163.357 28.849L162.758 28.685L162.159 28.5257L161.561 28.3712L160.962 28.2214L160.363 28.0764L159.764 27.9362L159.166 27.8008L158.567 27.6703L157.968 27.5445L157.369 27.4236L156.771 27.3076L156.172 27.1964L155.573 27.0902L154.975 26.9888L154.376 26.8923L153.777 26.8007L153.178 26.714L152.58 26.6323L151.981 26.5555L151.382 26.4836L150.783 26.4167L150.185 26.3548L149.586 26.2978L148.987 26.2458L148.389 26.1988L147.79 26.1567L147.191 26.1197L146.592 26.0876L145.994 26.0605L145.395 26.0384L144.796 26.0213L144.197 26.0092L143.599 26.0021L143 26L142.401 26.0029L141.803 26.0108L141.204 26.0237L140.605 26.0416L140.006 26.0645L139.408 26.0924L138.809 26.1252L138.21 26.1631L137.611 26.2059L137.013 26.2538L136.414 26.3066L135.815 26.3643L135.217 26.4271L134.618 26.4948L134.019 26.5674L133.42 26.645L132.822 26.7275L132.223 26.8149L131.624 26.9073L131.025 27.0046L130.427 27.1068L129.828 27.2138L129.229 27.3258L128.631 27.4426L128.032 27.5642L127.433 27.6907L126.834 27.8221L126.236 27.9582L125.637 28.0992L125.038 28.2449L124.439 28.3955L123.841 28.5508L123.242 28.7108L122.643 28.8755L122.045 29.045L121.446 29.2192L120.847 29.398L120.248 29.5815L119.65 29.7697L119.051 29.9625L118.452 30.1598L117.854 30.3618L117.255 30.5683L116.656 30.7794L116.057 30.995L115.459 31.2151L114.86 31.4396L114.261 31.6686L113.662 31.9021L113.064 32.14L112.465 32.3822L111.866 32.6288L111.268 32.8798L110.669 33.135L110.07 33.3946L109.471 33.6584L108.873 33.9264L108.274 34.1987L107.675 34.4751L107.076 34.7557L106.478 35.0404L105.879 35.3292L105.28 35.6221L104.682 35.919L104.083 36.2199L103.484 36.5248L102.885 36.8336L102.287 37.1464L101.688 37.463L101.089 37.7835L100.49 38.1079L99.8917 38.436L99.293 38.7678L98.6943 39.1034L98.0955 39.4427L97.4968 39.7856L96.8981 40.1322L96.2994 40.4823L95.7006 40.836L95.1019 41.1932L94.5032 41.5539L93.9045 41.9181L93.3057 42.2856L92.707 42.6565L92.1083 43.0308L91.5096 43.4083L90.9108 43.7891L90.3121 44.1731L89.7134 44.5603L89.1146 44.9507L88.5159 45.3441L87.9172 45.7407L87.3185 46.1402L86.7197 46.5428L86.121 46.9482L85.5223 47.3566L84.9236 47.7679L84.3248 48.1819L83.7261 48.5988L83.1274 49.0184L82.5287 49.4407L81.9299 49.8656L81.3312 50.2932L80.7325 50.7233L80.1338 51.156L79.535 51.5911L78.9363 52.0287L78.3376 52.4687L77.7389 52.911L77.1401 53.3557L76.5414 53.8026L75.9427 54.2517L75.3439 54.703L74.7452 55.1565L74.1465 55.612L73.5478 56.0695L72.949 56.5291L72.3503 56.9906L71.7516 57.454L71.1529 57.9192L70.5541 58.3863L69.9554 58.8551L69.3567 59.3256L68.758 59.7978L68.1592 60.2717L67.5605 60.7471L66.9618 61.224L66.3631 61.7024L65.7643 62.1822L65.1656 62.6634L64.5669 63.146L63.9682 63.6298L63.3694 64.1149L62.7707 64.6011L62.172 65.0885L61.5732 65.577L60.9745 66.0665L60.3758 66.5571L59.7771 67.0485L59.1783 67.5409L58.5796 68.0341L57.9809 68.5281L57.3822 69.0228L56.7834 69.5183L56.1847 70.0144L55.586 70.5111L54.9873 71.0083L54.3885 71.5061L53.7898 72.0043L53.1911 72.5029L52.5924 73.0018L51.9936 73.501L51.3949 74.0005L50.7962 74.5002L50.1975 75.0001L49.5987 75.5Z" fill="#7CC9F2"/>
<line x1="49.5" y1="76" x2="49.5" y2="34" stroke="#C4C4C4" stroke-dasharray="2 2"/>
<line y1="75.5" x2="290" y2="75.5" stroke="#C4C4C4" stroke-dasharray="2 2"/>
<line x1="237.5" y1="76" x2="237.5" y2="34" stroke="#C4C4C4" stroke-dasharray="2 2"/>
<path d="M220.98 11.07C220.52 11.07 220.107 10.99 219.74 10.83C219.38 10.6633 219.097 10.4367 218.89 10.15C218.683 9.85667 218.577 9.52 218.57 9.14H219.54C219.573 9.46667 219.707 9.74333 219.94 9.97C220.18 10.19 220.527 10.3 220.98 10.3C221.413 10.3 221.753 10.1933 222 9.98C222.253 9.76 222.38 9.48 222.38 9.14C222.38 8.87333 222.307 8.65667 222.16 8.49C222.013 8.32333 221.83 8.19667 221.61 8.11C221.39 8.02333 221.093 7.93 220.72 7.83C220.26 7.71 219.89 7.59 219.61 7.47C219.337 7.35 219.1 7.16333 218.9 6.91C218.707 6.65 218.61 6.30333 218.61 5.87C218.61 5.49 218.707 5.15333 218.9 4.86C219.093 4.56667 219.363 4.34 219.71 4.18C220.063 4.02 220.467 3.94 220.92 3.94C221.573 3.94 222.107 4.10333 222.52 4.43C222.94 4.75667 223.177 5.19 223.23 5.73H222.23C222.197 5.46333 222.057 5.23 221.81 5.03C221.563 4.82333 221.237 4.72 220.83 4.72C220.45 4.72 220.14 4.82 219.9 5.02C219.66 5.21333 219.54 5.48667 219.54 5.84C219.54 6.09333 219.61 6.3 219.75 6.46C219.897 6.62 220.073 6.74333 220.28 6.83C220.493 6.91 220.79 7.00333 221.17 7.11C221.63 7.23667 222 7.36333 222.28 7.49C222.56 7.61 222.8 7.8 223 8.06C223.2 8.31333 223.3 8.66 223.3 9.1C223.3 9.44 223.21 9.76 223.03 10.06C222.85 10.36 222.583 10.6033 222.23 10.79C221.877 10.9767 221.46 11.07 220.98 11.07ZM229.499 5.52V11H228.589V10.19C228.416 10.47 228.172 10.69 227.859 10.85C227.552 11.0033 227.212 11.08 226.839 11.08C226.412 11.08 226.029 10.9933 225.689 10.82C225.349 10.64 225.079 10.3733 224.879 10.02C224.686 9.66667 224.589 9.23667 224.589 8.73V5.52H225.489V8.61C225.489 9.15 225.626 9.56667 225.899 9.86C226.172 10.1467 226.546 10.29 227.019 10.29C227.506 10.29 227.889 10.14 228.169 9.84C228.449 9.54 228.589 9.10333 228.589 8.53V5.52H229.499ZM233.706 5.42C234.372 5.42 234.912 5.62333 235.326 6.03C235.739 6.43 235.946 7.01 235.946 7.77V11H235.046V7.9C235.046 7.35333 234.909 6.93667 234.636 6.65C234.362 6.35667 233.989 6.21 233.516 6.21C233.036 6.21 232.652 6.36 232.366 6.66C232.086 6.96 231.946 7.39667 231.946 7.97V11H231.036V5.52H231.946V6.3C232.126 6.02 232.369 5.80333 232.676 5.65C232.989 5.49667 233.332 5.42 233.706 5.42ZM238.342 6.41C238.502 6.09667 238.729 5.85333 239.022 5.68C239.322 5.50667 239.685 5.42 240.112 5.42V6.36H239.872C238.852 6.36 238.342 6.91333 238.342 8.02V11H237.432V5.52H238.342V6.41ZM241.633 4.63C241.459 4.63 241.313 4.57 241.193 4.45C241.073 4.33 241.013 4.18333 241.013 4.01C241.013 3.83667 241.073 3.69 241.193 3.57C241.313 3.45 241.459 3.39 241.633 3.39C241.799 3.39 241.939 3.45 242.053 3.57C242.173 3.69 242.233 3.83667 242.233 4.01C242.233 4.18333 242.173 4.33 242.053 4.45C241.939 4.57 241.799 4.63 241.633 4.63ZM242.073 5.52V11H241.163V5.52H242.073ZM245.564 11.09C245.144 11.09 244.767 11.02 244.434 10.88C244.1 10.7333 243.837 10.5333 243.644 10.28C243.45 10.02 243.344 9.72333 243.324 9.39H244.264C244.29 9.66333 244.417 9.88667 244.644 10.06C244.877 10.2333 245.18 10.32 245.554 10.32C245.9 10.32 246.174 10.2433 246.374 10.09C246.574 9.93667 246.674 9.74333 246.674 9.51C246.674 9.27 246.567 9.09333 246.354 8.98C246.14 8.86 245.81 8.74333 245.364 8.63C244.957 8.52333 244.624 8.41667 244.364 8.31C244.11 8.19667 243.89 8.03333 243.704 7.82C243.524 7.6 243.434 7.31333 243.434 6.96C243.434 6.68 243.517 6.42333 243.684 6.19C243.85 5.95667 244.087 5.77333 244.394 5.64C244.7 5.5 245.05 5.43 245.444 5.43C246.05 5.43 246.54 5.58333 246.914 5.89C247.287 6.19667 247.487 6.61667 247.514 7.15H246.604C246.584 6.86333 246.467 6.63333 246.254 6.46C246.047 6.28667 245.767 6.2 245.414 6.2C245.087 6.2 244.827 6.27 244.634 6.41C244.44 6.55 244.344 6.73333 244.344 6.96C244.344 7.14 244.4 7.29 244.514 7.41C244.634 7.52333 244.78 7.61667 244.954 7.69C245.134 7.75667 245.38 7.83333 245.694 7.92C246.087 8.02667 246.407 8.13333 246.654 8.24C246.9 8.34 247.11 8.49333 247.284 8.7C247.464 8.90667 247.557 9.17667 247.564 9.51C247.564 9.81 247.48 10.08 247.314 10.32C247.147 10.56 246.91 10.75 246.604 10.89C246.304 11.0233 245.957 11.09 245.564 11.09ZM253.848 8.05C253.848 8.22333 253.838 8.40667 253.818 8.6H249.438C249.471 9.14 249.655 9.56333 249.988 9.87C250.328 10.17 250.738 10.32 251.218 10.32C251.611 10.32 251.938 10.23 252.198 10.05C252.465 9.86333 252.651 9.61667 252.758 9.31H253.738C253.591 9.83667 253.298 10.2667 252.858 10.6C252.418 10.9267 251.871 11.09 251.218 11.09C250.698 11.09 250.231 10.9733 249.818 10.74C249.411 10.5067 249.091 10.1767 248.858 9.75C248.625 9.31667 248.508 8.81667 248.508 8.25C248.508 7.68333 248.621 7.18667 248.848 6.76C249.075 6.33333 249.391 6.00667 249.798 5.78C250.211 5.54667 250.685 5.43 251.218 5.43C251.738 5.43 252.198 5.54333 252.598 5.77C252.998 5.99667 253.305 6.31 253.518 6.71C253.738 7.10333 253.848 7.55 253.848 8.05ZM252.908 7.86C252.908 7.51333 252.831 7.21667 252.678 6.97C252.525 6.71667 252.315 6.52667 252.048 6.4C251.788 6.26667 251.498 6.2 251.178 6.2C250.718 6.2 250.325 6.34667 249.998 6.64C249.678 6.93333 249.495 7.34 249.448 7.86H252.908Z" fill="#C4C4C4"/>
<path d="M211.871 25.572C211.871 24.196 212.095 23.124 212.543 22.356C212.991 21.58 213.775 21.192 214.895 21.192C216.007 21.192 216.787 21.58 217.235 22.356C217.683 23.124 217.907 24.196 217.907 25.572C217.907 26.972 217.683 28.06 217.235 28.836C216.787 29.612 216.007 30 214.895 30C213.775 30 212.991 29.612 212.543 28.836C212.095 28.06 211.871 26.972 211.871 25.572ZM216.827 25.572C216.827 24.876 216.779 24.288 216.683 23.808C216.595 23.32 216.407 22.928 216.119 22.632C215.839 22.336 215.431 22.188 214.895 22.188C214.351 22.188 213.935 22.336 213.647 22.632C213.367 22.928 213.179 23.32 213.083 23.808C212.995 24.288 212.951 24.876 212.951 25.572C212.951 26.292 212.995 26.896 213.083 27.384C213.179 27.872 213.367 28.264 213.647 28.56C213.935 28.856 214.351 29.004 214.895 29.004C215.431 29.004 215.839 28.856 216.119 28.56C216.407 28.264 216.595 27.872 216.683 27.384C216.779 26.896 216.827 26.292 216.827 25.572ZM220.99 25.488C220.542 25.312 220.198 25.056 219.958 24.72C219.718 24.384 219.598 23.976 219.598 23.496C219.598 23.064 219.706 22.676 219.922 22.332C220.138 21.98 220.458 21.704 220.882 21.504C221.314 21.296 221.834 21.192 222.442 21.192C223.05 21.192 223.566 21.296 223.99 21.504C224.422 21.704 224.746 21.98 224.962 22.332C225.186 22.676 225.298 23.064 225.298 23.496C225.298 23.96 225.174 24.368 224.926 24.72C224.678 25.064 224.338 25.32 223.906 25.488C224.402 25.64 224.794 25.908 225.082 26.292C225.378 26.668 225.526 27.124 225.526 27.66C225.526 28.18 225.398 28.636 225.142 29.028C224.886 29.412 224.522 29.712 224.05 29.928C223.586 30.136 223.05 30.24 222.442 30.24C221.834 30.24 221.298 30.136 220.834 29.928C220.378 29.712 220.022 29.412 219.766 29.028C219.51 28.636 219.382 28.18 219.382 27.66C219.382 27.124 219.526 26.664 219.814 26.28C220.102 25.896 220.494 25.632 220.99 25.488ZM224.242 23.628C224.242 23.14 224.082 22.764 223.762 22.5C223.442 22.236 223.002 22.104 222.442 22.104C221.89 22.104 221.454 22.236 221.134 22.5C220.814 22.764 220.654 23.144 220.654 23.64C220.654 24.088 220.818 24.448 221.146 24.72C221.482 24.992 221.914 25.128 222.442 25.128C222.978 25.128 223.41 24.992 223.738 24.72C224.074 24.44 224.242 24.076 224.242 23.628ZM222.442 25.968C221.85 25.968 221.366 26.108 220.99 26.388C220.614 26.66 220.426 27.072 220.426 27.624C220.426 28.136 220.606 28.548 220.966 28.86C221.334 29.172 221.826 29.328 222.442 29.328C223.058 29.328 223.546 29.172 223.906 28.86C224.266 28.548 224.446 28.136 224.446 27.624C224.446 27.088 224.262 26.68 223.894 26.4C223.526 26.112 223.042 25.968 222.442 25.968ZM227.504 30.072C227.296 30.072 227.12 30 226.976 29.856C226.832 29.712 226.76 29.536 226.76 29.328C226.76 29.12 226.832 28.944 226.976 28.8C227.12 28.656 227.296 28.584 227.504 28.584C227.704 28.584 227.872 28.656 228.008 28.8C228.152 28.944 228.224 29.12 228.224 29.328C228.224 29.536 228.152 29.712 228.008 29.856C227.872 30 227.704 30.072 227.504 30.072ZM227.504 24.936C227.296 24.936 227.12 24.864 226.976 24.72C226.832 24.576 226.76 24.4 226.76 24.192C226.76 23.984 226.832 23.808 226.976 23.664C227.12 23.52 227.296 23.448 227.504 23.448C227.704 23.448 227.872 23.52 228.008 23.664C228.152 23.808 228.224 23.984 228.224 24.192C228.224 24.4 228.152 24.576 228.008 24.72C227.872 24.864 227.704 24.936 227.504 24.936ZM229.507 23.508C229.563 22.772 229.847 22.196 230.359 21.78C230.871 21.364 231.535 21.156 232.351 21.156C232.895 21.156 233.363 21.256 233.755 21.456C234.155 21.648 234.455 21.912 234.655 22.248C234.863 22.584 234.967 22.964 234.967 23.388C234.967 23.884 234.823 24.312 234.535 24.672C234.255 25.032 233.887 25.264 233.431 25.368V25.428C233.951 25.556 234.363 25.808 234.667 26.184C234.971 26.56 235.123 27.052 235.123 27.66C235.123 28.116 235.019 28.528 234.811 28.896C234.603 29.256 234.291 29.54 233.875 29.748C233.459 29.956 232.959 30.06 232.375 30.06C231.527 30.06 230.831 29.84 230.287 29.4C229.743 28.952 229.439 28.32 229.375 27.504H230.431C230.487 27.984 230.683 28.376 231.019 28.68C231.355 28.984 231.803 29.136 232.363 29.136C232.923 29.136 233.347 28.992 233.635 28.704C233.931 28.408 234.079 28.028 234.079 27.564C234.079 26.964 233.879 26.532 233.479 26.268C233.079 26.004 232.475 25.872 231.667 25.872H231.391V24.96H231.679C232.415 24.952 232.971 24.832 233.347 24.6C233.723 24.36 233.911 23.992 233.911 23.496C233.911 23.072 233.771 22.732 233.491 22.476C233.219 22.22 232.827 22.092 232.315 22.092C231.819 22.092 231.419 22.22 231.115 22.476C230.811 22.732 230.631 23.076 230.575 23.508H229.507ZM236.598 25.572C236.598 24.196 236.822 23.124 237.27 22.356C237.718 21.58 238.502 21.192 239.622 21.192C240.734 21.192 241.514 21.58 241.962 22.356C242.41 23.124 242.634 24.196 242.634 25.572C242.634 26.972 242.41 28.06 241.962 28.836C241.514 29.612 240.734 30 239.622 30C238.502 30 237.718 29.612 237.27 28.836C236.822 28.06 236.598 26.972 236.598 25.572ZM241.554 25.572C241.554 24.876 241.506 24.288 241.41 23.808C241.322 23.32 241.134 22.928 240.846 22.632C240.566 22.336 240.158 22.188 239.622 22.188C239.078 22.188 238.662 22.336 238.374 22.632C238.094 22.928 237.906 23.32 237.81 23.808C237.722 24.288 237.678 24.876 237.678 25.572C237.678 26.292 237.722 26.896 237.81 27.384C237.906 27.872 238.094 28.264 238.374 28.56C238.662 28.856 239.078 29.004 239.622 29.004C240.158 29.004 240.566 28.856 240.846 28.56C241.134 28.264 241.322 27.872 241.41 27.384C241.506 26.896 241.554 26.292 241.554 25.572ZM253.104 24.084C253.104 24.78 252.864 25.36 252.384 25.824C251.912 26.28 251.188 26.508 250.212 26.508H248.604V30H247.512V21.636H250.212C251.156 21.636 251.872 21.864 252.36 22.32C252.856 22.776 253.104 23.364 253.104 24.084ZM250.212 25.608C250.82 25.608 251.268 25.476 251.556 25.212C251.844 24.948 251.988 24.572 251.988 24.084C251.988 23.052 251.396 22.536 250.212 22.536H248.604V25.608H250.212ZM262.945 21.696V30H261.853V23.808L259.093 30H258.325L255.553 23.796V30H254.461V21.696H255.637L258.709 28.56L261.781 21.696H262.945Z" fill="#9A9A9A"/>
<path d="M258.14 65.03V72H257.23V68.84H253.68V72H252.77V65.03H253.68V68.09H257.23V65.03H258.14ZM262.084 72.09C261.57 72.09 261.104 71.9733 260.684 71.74C260.27 71.5067 259.944 71.1767 259.704 70.75C259.47 70.3167 259.354 69.8167 259.354 69.25C259.354 68.69 259.474 68.1967 259.714 67.77C259.96 67.3367 260.294 67.0067 260.714 66.78C261.134 66.5467 261.604 66.43 262.124 66.43C262.644 66.43 263.114 66.5467 263.534 66.78C263.954 67.0067 264.284 67.3333 264.524 67.76C264.77 68.1867 264.894 68.6833 264.894 69.25C264.894 69.8167 264.767 70.3167 264.514 70.75C264.267 71.1767 263.93 71.5067 263.504 71.74C263.077 71.9733 262.604 72.09 262.084 72.09ZM262.084 71.29C262.41 71.29 262.717 71.2133 263.004 71.06C263.29 70.9067 263.52 70.6767 263.694 70.37C263.874 70.0633 263.964 69.69 263.964 69.25C263.964 68.81 263.877 68.4367 263.704 68.13C263.53 67.8233 263.304 67.5967 263.024 67.45C262.744 67.2967 262.44 67.22 262.114 67.22C261.78 67.22 261.474 67.2967 261.194 67.45C260.92 67.5967 260.7 67.8233 260.534 68.13C260.367 68.4367 260.284 68.81 260.284 69.25C260.284 69.6967 260.364 70.0733 260.524 70.38C260.69 70.6867 260.91 70.9167 261.184 71.07C261.457 71.2167 261.757 71.29 262.084 71.29ZM267 67.41C267.16 67.0967 267.387 66.8533 267.68 66.68C267.98 66.5067 268.344 66.42 268.77 66.42V67.36H268.53C267.51 67.36 267 67.9133 267 69.02V72H266.09V66.52H267V67.41ZM270.291 65.63C270.117 65.63 269.971 65.57 269.851 65.45C269.731 65.33 269.671 65.1833 269.671 65.01C269.671 64.8367 269.731 64.69 269.851 64.57C269.971 64.45 270.117 64.39 270.291 64.39C270.457 64.39 270.597 64.45 270.711 64.57C270.831 64.69 270.891 64.8367 270.891 65.01C270.891 65.1833 270.831 65.33 270.711 65.45C270.597 65.57 270.457 65.63 270.291 65.63ZM270.731 66.52V72H269.821V66.52H270.731ZM272.962 71.25H275.652V72H271.922V71.25L274.582 67.26H271.942V66.52H275.632V67.26L272.962 71.25ZM279.223 72.09C278.709 72.09 278.243 71.9733 277.823 71.74C277.409 71.5067 277.083 71.1767 276.843 70.75C276.609 70.3167 276.493 69.8167 276.493 69.25C276.493 68.69 276.613 68.1967 276.853 67.77C277.099 67.3367 277.433 67.0067 277.853 66.78C278.273 66.5467 278.743 66.43 279.263 66.43C279.783 66.43 280.253 66.5467 280.673 66.78C281.093 67.0067 281.423 67.3333 281.663 67.76C281.909 68.1867 282.033 68.6833 282.033 69.25C282.033 69.8167 281.906 70.3167 281.653 70.75C281.406 71.1767 281.069 71.5067 280.643 71.74C280.216 71.9733 279.743 72.09 279.223 72.09ZM279.223 71.29C279.549 71.29 279.856 71.2133 280.143 71.06C280.429 70.9067 280.659 70.6767 280.833 70.37C281.013 70.0633 281.103 69.69 281.103 69.25C281.103 68.81 281.016 68.4367 280.843 68.13C280.669 67.8233 280.443 67.5967 280.163 67.45C279.883 67.2967 279.579 67.22 279.253 67.22C278.919 67.22 278.613 67.2967 278.333 67.45C278.059 67.5967 277.839 67.8233 277.673 68.13C277.506 68.4367 277.423 68.81 277.423 69.25C277.423 69.6967 277.503 70.0733 277.663 70.38C277.829 70.6867 278.049 70.9167 278.323 71.07C278.596 71.2167 278.896 71.29 279.223 71.29ZM285.899 66.42C286.566 66.42 287.106 66.6233 287.519 67.03C287.932 67.43 288.139 68.01 288.139 68.77V72H287.239V68.9C287.239 68.3533 287.102 67.9367 286.829 67.65C286.556 67.3567 286.182 67.21 285.709 67.21C285.229 67.21 284.846 67.36 284.559 67.66C284.279 67.96 284.139 68.3967 284.139 68.97V72H283.229V66.52H284.139V67.3C284.319 67.02 284.562 66.8033 284.869 66.65C285.182 66.4967 285.526 66.42 285.899 66.42Z" fill="#C4C4C4"/>
</svg>
