<!-- icon666.com - MILLIONS OF FREE VECTOR ICONS --><svg viewBox="0 0 48 48" xmlns="http://www.w3.org/2000/svg" xmlns:xlink="http://www.w3.org/1999/xlink"><linearGradient id="linear-gradient" gradientUnits="userSpaceOnUse" x1="19.792" x2="34.958" y1="11.069" y2="25.652"><stop offset="0" stop-color="#ffca4f"></stop><stop offset="1" stop-color="#f7ae30"></stop></linearGradient><linearGradient id="linear-gradient-2" gradientUnits="userSpaceOnUse" x1="19.534" x2="25.615" y1="10.425" y2="16.595"><stop offset="0" stop-color="#ffd980"></stop><stop offset="1" stop-color="#ffca4f" stop-opacity="0"></stop></linearGradient><linearGradient id="linear-gradient-3" gradientUnits="userSpaceOnUse" x1="27.566" x2="35.698" y1="18.542" y2="26.361"><stop offset="0" stop-color="#ffca4f" stop-opacity="0"></stop><stop offset="1" stop-color="#f4901f"></stop></linearGradient><linearGradient id="linear-gradient-4" gradientUnits="userSpaceOnUse" x1="24" x2="24" y1="20.75" y2="46.13"><stop offset="0" stop-color="#eaecf7"></stop><stop offset="1" stop-color="#cdd3f1"></stop></linearGradient><linearGradient id="linear-gradient-5" x1="27" x2="27" xlink:href="#linear-gradient" y1="1.167" y2="4.857"></linearGradient><linearGradient id="linear-gradient-6" x1="9.874" x2="13.874" xlink:href="#linear-gradient" y1="17.978" y2="18.02"></linearGradient><linearGradient id="linear-gradient-7" x1="43.833" x2="40.082" xlink:href="#linear-gradient" y1="18" y2="18"></linearGradient><linearGradient id="linear-gradient-8" x1="38.813" x2="36.188" xlink:href="#linear-gradient" y1="6.188" y2="8.813"></linearGradient><linearGradient id="linear-gradient-9" x1="15.084" x2="17.792" xlink:href="#linear-gradient" y1="6.124" y2="8.749"></linearGradient><linearGradient id="linear-gradient-10" gradientUnits="userSpaceOnUse" x1="24" x2="24" y1="36.013" y2="47.727"><stop offset="0" stop-color="#e2e5f4" stop-opacity="0"></stop><stop offset="1" stop-color="#9aa6e2"></stop></linearGradient><g id="Cloudy_day" data-name="Cloudy day"><circle cx="27" cy="18" fill="url(#linear-gradient)" r="10"></circle><path d="m27 27a9 9 0 1 1 9-9 9.01 9.01 0 0 1 -9 9z" fill="url(#linear-gradient-2)"></path><path d="m33.93 10.8-14.357 13.879a9.991 9.991 0 1 0 14.357-13.879z" fill="url(#linear-gradient-3)"></path><path d="m38 30c-.121 0-.238.013-.357.018a12.981 12.981 0 0 0 -23.7-3.826 10 10 0 1 0 -1.943 19.808h26a8 8 0 0 0 0-16z" fill="url(#linear-gradient-4)"></path><path d="m27 5a1 1 0 0 1 -1-1v-2a1 1 0 0 1 2 0v2a1 1 0 0 1 -1 1z" fill="url(#linear-gradient-5)"></path><path d="m13 19h-2a1 1 0 0 1 0-2h2a1 1 0 0 1 0 2z" fill="url(#linear-gradient-6)"></path><path d="m43 19h-2a1 1 0 0 1 0-2h2a1 1 0 0 1 0 2z" fill="url(#linear-gradient-7)"></path><path d="m36.9 9.1a1 1 0 0 1 -.707-1.707l1.414-1.414a1 1 0 0 1 1.414 1.414l-1.415 1.415a1 1 0 0 1 -.706.292z" fill="url(#linear-gradient-8)"></path><path d="m17.1 9.1a1 1 0 0 1 -.707-.293l-1.414-1.413a1 1 0 1 1 1.414-1.414l1.414 1.414a1 1 0 0 1 -.707 1.706z" fill="url(#linear-gradient-9)"></path><path d="m2.2 34a10.005 10.005 0 0 0 9.8 12h26a7.99 7.99 0 0 0 6.921-12z" fill="url(#linear-gradient-10)"></path></g></svg>