<!-- icon666.com - MILLIONS OF FREE VECTOR ICONS --><svg viewBox="0 0 48 48" xmlns="http://www.w3.org/2000/svg" xmlns:xlink="http://www.w3.org/1999/xlink"><linearGradient id="linear-gradient" gradientUnits="userSpaceOnUse" x1="13.456" x2="33.206" y1="14.569" y2="32.235"><stop offset="0" stop-color="#ffca4f"></stop><stop offset="1" stop-color="#f7ae30"></stop></linearGradient><linearGradient id="linear-gradient-2" gradientUnits="userSpaceOnUse" x1="14.763" x2="22.218" y1="15.284" y2="22.319"><stop offset="0" stop-color="#ffd980"></stop><stop offset="1" stop-color="#ffca4f" stop-opacity="0"></stop></linearGradient><linearGradient id="linear-gradient-3" x1="24" x2="24" xlink:href="#linear-gradient" y1="3.042" y2="7.917"></linearGradient><linearGradient id="linear-gradient-4" x1="24" x2="24" xlink:href="#linear-gradient" y1="44.906" y2="39.969"></linearGradient><linearGradient id="linear-gradient-5" x1="9.236" x2="12.674" xlink:href="#linear-gradient" y1="9.298" y2="12.61"></linearGradient><linearGradient id="linear-gradient-6" x1="38.75" x2="35.417" xlink:href="#linear-gradient" y1="38.792" y2="35.376"></linearGradient><linearGradient id="linear-gradient-7" x1="3.063" x2="7.848" xlink:href="#linear-gradient" y1="24" y2="24"></linearGradient><linearGradient id="linear-gradient-8" x1="45.063" x2="40.063" xlink:href="#linear-gradient" y1="24" y2="24"></linearGradient><linearGradient id="linear-gradient-9" x1="9.214" x2="12.651" xlink:href="#linear-gradient" y1="38.776" y2="35.359"></linearGradient><linearGradient id="linear-gradient-10" x1="38.789" x2="35.414" xlink:href="#linear-gradient" y1="9.227" y2="12.571"></linearGradient><linearGradient id="linear-gradient-11" x1="15.15" x2="17.9" xlink:href="#linear-gradient" y1="2.815" y2="9.096"></linearGradient><linearGradient id="linear-gradient-12" x1="32.737" x2="30.196" xlink:href="#linear-gradient" y1="45.172" y2="38.88"></linearGradient><linearGradient id="linear-gradient-13" x1="2.844" x2="9.125" xlink:href="#linear-gradient" y1="15.178" y2="17.897"></linearGradient><linearGradient id="linear-gradient-14" x1="45.191" x2="38.857" xlink:href="#linear-gradient" y1="32.862" y2="30.07"></linearGradient><linearGradient id="linear-gradient-15" x1="2.896" x2="9.083" xlink:href="#linear-gradient" y1="32.788" y2="30.132"></linearGradient><linearGradient id="linear-gradient-16" x1="45.298" x2="38.798" xlink:href="#linear-gradient" y1="15.275" y2="17.775"></linearGradient><linearGradient id="linear-gradient-17" x1="15.246" x2="17.84" xlink:href="#linear-gradient" y1="45.268" y2="38.737"></linearGradient><linearGradient id="linear-gradient-18" x1="32.795" x2="30.138" xlink:href="#linear-gradient" y1="2.849" y2="9.099"></linearGradient><linearGradient id="linear-gradient-19" gradientUnits="userSpaceOnUse" x1="24.699" x2="33.283" y1="24.644" y2="32.436"><stop offset="0" stop-color="#ffca4f" stop-opacity="0"></stop><stop offset="1" stop-color="#f4901f"></stop></linearGradient><g id="Sunny"><circle cx="24" cy="24" fill="url(#linear-gradient)" r="12"></circle><path d="m24 35a11 11 0 1 1 11-11 11.012 11.012 0 0 1 -11 11z" fill="url(#linear-gradient-2)"></path><path d="m24 45a1 1 0 0 1 -1-1v-3a1 1 0 0 1 2 0v3a1 1 0 0 1 -1 1z" fill="#ef9d3a"></path><path d="m24 8a1 1 0 0 1 -1-1v-3a1 1 0 0 1 2 0v3a1 1 0 0 1 -1 1z" fill="url(#linear-gradient-3)"></path><path d="m24 45a1 1 0 0 1 -1-1v-3a1 1 0 0 1 2 0v3a1 1 0 0 1 -1 1z" fill="url(#linear-gradient-4)"></path><path d="m11.979 12.979a1 1 0 0 1 -.707-.293l-2.121-2.121a1 1 0 1 1 1.414-1.414l2.121 2.121a1 1 0 0 1 -.707 1.707z" fill="url(#linear-gradient-5)"></path><path d="m38.142 39.142a1 1 0 0 1 -.707-.293l-2.121-2.121a1 1 0 0 1 1.414-1.414l2.121 2.121a1 1 0 0 1 -.707 1.707z" fill="url(#linear-gradient-6)"></path><path d="m7 25h-3a1 1 0 0 1 0-2h3a1 1 0 0 1 0 2z" fill="url(#linear-gradient-7)"></path><path d="m44 25h-3a1 1 0 0 1 0-2h3a1 1 0 0 1 0 2z" fill="url(#linear-gradient-8)"></path><path d="m9.858 39.142a1 1 0 0 1 -.707-1.707l2.121-2.121a1 1 0 0 1 1.414 1.414l-2.121 2.121a1 1 0 0 1 -.707.293z" fill="url(#linear-gradient-9)"></path><path d="m36.021 12.979a1 1 0 0 1 -.707-1.707l2.121-2.121a1 1 0 1 1 1.414 1.414l-2.121 2.121a1 1 0 0 1 -.707.293z" fill="url(#linear-gradient-10)"></path><path d="m17.495 9.294a1 1 0 0 1 -.924-.618l-1.914-4.618a1 1 0 0 1 1.843-.766l1.913 4.619a1 1 0 0 1 -.923 1.383z" fill="url(#linear-gradient-11)"></path><path d="m32.419 45.326a1 1 0 0 1 -.924-.618l-1.913-4.619a1 1 0 1 1 1.848-.766l1.913 4.619a1 1 0 0 1 -.923 1.383z" fill="url(#linear-gradient-12)"></path><path d="m8.293 18.495a1 1 0 0 1 -.382-.077l-4.619-1.918a1 1 0 0 1 .766-1.848l4.619 1.918a1 1 0 0 1 -.383 1.924z" fill="url(#linear-gradient-13)"></path><path d="m44.325 33.419a1 1 0 0 1 -.382-.077l-4.62-1.912a1 1 0 1 1 .766-1.848l4.619 1.918a1 1 0 0 1 -.383 1.924z" fill="url(#linear-gradient-14)"></path><path d="m3.675 33.419a1 1 0 0 1 -.383-1.919l4.619-1.913a1 1 0 0 1 .766 1.848l-4.619 1.908a1 1 0 0 1 -.383.076z" fill="url(#linear-gradient-15)"></path><path d="m39.707 18.495a1 1 0 0 1 -.383-1.924l4.619-1.913a1 1 0 1 1 .766 1.848l-4.619 1.913a1 1 0 0 1 -.383.076z" fill="url(#linear-gradient-16)"></path><path d="m15.581 45.326a1 1 0 0 1 -.923-1.383l1.913-4.619a1 1 0 1 1 1.848.766l-1.919 4.618a1 1 0 0 1 -.919.618z" fill="url(#linear-gradient-17)"></path><path d="m30.505 9.294a1 1 0 0 1 -.923-1.383l1.918-4.619a1 1 0 0 1 1.848.766l-1.918 4.619a1 1 0 0 1 -.925.617z" fill="url(#linear-gradient-18)"></path><path d="m15.515 32.485a12 12 0 0 0 16.97-16.97z" fill="url(#linear-gradient-19)"></path></g></svg>